<?xml version="1.0" standalone="no"?>
<!DOCTYPE svg PUBLIC "-//W3C//DTD SVG 20010904//EN"
 "http://www.w3.org/TR/2001/REC-SVG-20010904/DTD/svg10.dtd">
<svg version="1.0" xmlns="http://www.w3.org/2000/svg"
 width="256.000000pt" height="256.000000pt" viewBox="0 0 256.000000 256.000000"
 preserveAspectRatio="xMidYMid meet">
<metadata>
Created by potrace 1.14, written by Peter Selinger 2001-2017
</metadata>
<g transform="translate(0.000000,256.000000) scale(0.100000,-0.100000)"
fill="#000000" stroke="none">
<path d="M0 1280 l0 -1280 1280 0 1280 0 0 1280 0 1280 -1280 0 -1280 0 0
-1280z m390 197 l5 -257 323 260 324 260 89 0 c50 0 88 -3 85 -8 -2 -4 -121
-99 -264 -211 l-259 -204 196 -191 c108 -105 237 -230 286 -278 l90 -88 -90 0
-90 1 -246 239 -246 239 -101 -80 -102 -80 0 -160 0 -159 -65 0 -65 0 0 490 0
491 63 -3 62 -3 5 -258z m1070 53 l0 -210 370 0 370 0 0 210 0 210 65 0 65 0
0 -490 0 -490 -65 0 -65 0 0 225 0 225 -367 -2 -368 -3 -3 -222 -2 -223 -65 0
-65 0 0 490 0 490 65 0 65 0 0 -210z"/>
</g>
</svg>
